<?xml version="1.0" encoding="UTF-8" standalone="no"?>
<!-- Created with Inkscape (http://www.inkscape.org/) -->
<svg
   xmlns:svg="http://www.w3.org/2000/svg"
   xmlns="http://www.w3.org/2000/svg"
   version="1.0"
   width="739.41687"
   height="232.84999"
   id="svg2">
  <defs
     id="defs4">
    <marker
       refX="0"
       refY="0"
       orient="auto"
       style="overflow:visible"
       id="StopM">
      <path
         d="M 0,5.65 L 0,-5.65"
         transform="scale(0.4,0.4)"
         style="fill:none;fill-opacity:0.75;fill-rule:evenodd;stroke:black;stroke-width:1pt"
         id="path5555" />
    </marker>
    <marker
       refX="0"
       refY="0"
       orient="auto"
       style="overflow:visible"
       id="StopL">
      <path
         d="M 0,5.65 L 0,-5.65"
         transform="scale(0.8,0.8)"
         style="fill:none;fill-opacity:0.75;fill-rule:evenodd;stroke:black;stroke-width:1pt"
         id="path5558" />
    </marker>
    <marker
       refX="0"
       refY="0"
       orient="auto"
       style="overflow:visible"
       id="DistanceOut">
      <g
         id="g2300">
        <path
           d="M 0,0 L -2,0"
           style="fill:none;stroke:white;stroke-width:1.14999998;stroke-linecap:square"
           id="path2316" />
        <path
           d="M 0,0 L -13,4 L -9,0 L -13,-4 L 0,0 z "
           style="fill:black;fill-rule:evenodd;stroke:none"
           id="path2312" />
        <path
           d="M 0,-4 L 0,40"
           style="fill:none;stroke:black;stroke-width:1;stroke-linecap:square"
           id="path2314" />
      </g>
    </marker>
  </defs>
  <g
     transform="translate(-24.72374,-80.07654)"
     id="layer1">
    <g
       id="g1901">
      <path
         d="M 60.375,262 C 59.787957,262.10784 59.380962,262.64683 59.437935,263.24097 C 59.494907,263.83511 59.996911,264.28693 60.59375,264.28125 C 141.40595,264.28124 181.8282,264.28125 202.03125,264.28125 C 212.13278,264.28125 217.19337,264.28125 219.71875,264.28125 C 220.98144,264.28125 221.59058,264.28125 221.90625,264.28125 C 221.94132,264.28125 221.94104,264.28125 221.96875,264.28125 C 222.01032,264.28125 222.03506,264.28125 222.0625,264.28125 C 222.48277,264.34694 222.90499,264.1753 223.16021,263.835 C 223.41544,263.4947 223.46199,263.04132 223.28125,262.65625 L 222.96875,262 L 222.21875,262 C 222.21875,262 220.43772,262 220.4375,262 C 220.41809,262 220.43691,261.99999 60.59375,262 C 60.520999,261.99305 60.447751,261.99305 60.375,262 L 60.375,262 z "
         style="fill:#f6001b;fill-opacity:1;fill-rule:evenodd;stroke:none;stroke-width:2.29999995;stroke-linecap:round;stroke-linejoin:miter;stroke-miterlimit:4;stroke-dasharray:none;stroke-opacity:1"
         id="path3716" />
      <path
         d="M 60.609153,268.33498 L 60.609153,257.93898"
         style="fill:none;fill-opacity:0.75;fill-rule:evenodd;stroke:black;stroke-width:0.91999998pt"
         id="path1907" />
      <path
         d="M 222.23356,268.33498 L 222.23356,257.93898"
         style="fill:none;fill-opacity:0.75;fill-rule:evenodd;stroke:black;stroke-width:0.91999998pt"
         id="path1909" />
    </g>
    <g
       id="g1911">
      <path
         d="M 521,262 C 520.40463,262.10661 519.99357,262.65615 520.05946,263.2574 C 520.12535,263.85864 520.64567,264.30611 521.25,264.28125 L 673.78125,264.28125 C 674.22389,264.33847 674.65966,264.13443 674.89917,263.75782 C 675.13869,263.38121 675.13869,262.90004 674.89917,262.52343 C 674.65966,262.14682 674.22389,261.94278 673.78125,262 L 521.25,262 C 521.16691,261.99092 521.08309,261.99092 521,262 z "
         style="fill:#f6001b;fill-opacity:1;fill-rule:evenodd;stroke:none;stroke-width:2.29999995;stroke-linecap:round;stroke-linejoin:miter;stroke-miterlimit:4;stroke-dasharray:none;stroke-opacity:1"
         id="path4605" />
      <path
         d="M 521.23871,268.33498 L 521.23871,257.93898"
         style="fill:none;fill-opacity:0.75;fill-rule:evenodd;stroke:black;stroke-width:0.91999998pt"
         id="path1917" />
      <path
         d="M 673.77175,268.33498 L 673.77175,257.93898"
         style="fill:none;fill-opacity:0.75;fill-rule:evenodd;stroke:black;stroke-width:0.91999998pt"
         id="path1919" />
    </g>
    <path
       d="M 57.578695,242.4162 L 725.28953,242.4162"
       style="fill:none;fill-rule:evenodd;stroke:black;stroke-width:1px;stroke-linecap:butt;stroke-linejoin:miter;stroke-opacity:1"
       id="path1880" />
    <path
       d="M 145.3125,80.0625 C 104.67844,80.602151 63.193401,105.30957 53.0625,146.09375 L 54.03125,146.34375 C 70.025034,81.957244 165.50941,58.047105 209.78125,107.5625 C 209.79398,107.58164 209.79978,107.60585 209.8125,107.625 C 218.94996,121.37727 224.90215,138.08051 232.59375,153.4375 C 240.29217,168.8081 249.75873,182.86395 266.03125,191.125 C 266.03947,191.12917 266.05428,191.12083 266.0625,191.125 C 287.8183,203.42751 316.33808,199.26413 333.65625,181.1875 C 355.84766,159.3294 390.01783,153.51602 415.96875,172.53125 L 416,172.5625 L 416.03125,172.5625 C 425.98805,178.10762 438.05134,184.13991 450.125,186.46875 C 462.19866,188.79759 474.32663,187.40082 484.1875,178.0625 C 497.69261,166.03449 506.61846,149.80887 516.53125,134.6875 C 526.44404,119.56613 537.33386,105.57884 554.625,97.84375 L 554.625,97.8125 L 554.65625,97.8125 C 586.0277,81.032571 625.32269,88.248909 651.96875,110.71875 C 674.57004,128.00388 692.85314,152.57878 721.09375,161.84375 L 721.40625,160.90625 C 693.54338,151.7652 675.35068,127.34166 652.59375,109.9375 C 625.66827,87.232038 585.96353,79.932028 554.1875,96.90625 C 554.17518,96.912831 554.16857,96.930912 554.15625,96.9375 C 536.61979,104.79615 525.65254,119.00284 515.71875,134.15625 C 505.77756,149.32095 496.86604,165.43618 483.53125,177.3125 L 483.5,177.3125 L 483.5,177.34375 C 473.89914,186.43583 462.19236,187.79146 450.3125,185.5 C 438.44687,183.21129 426.481,177.24084 416.5625,171.71875 C 416.55066,171.71007 416.5431,171.69617 416.53125,171.6875 C 390.16818,152.39845 355.4218,158.35341 332.9375,180.5 C 315.93946,198.24248 287.87965,202.33738 266.53125,190.25 C 250.51163,182.12651 241.13304,168.30247 233.46875,153 C 225.80446,137.69753 219.88034,120.93902 210.625,107.03125 L 210.59375,107 L 210.5625,106.96875 C 193.7499,88.131276 169.69293,79.738709 145.3125,80.0625 z "
       style="fill:black;fill-opacity:1;fill-rule:evenodd;stroke:none;stroke-width:1px;stroke-linecap:butt;stroke-linejoin:miter;stroke-opacity:1"
       id="path1894" />
    <path
       d="M 42.4375,129.65625 L 52.03125,129.65625 L 52.03125,128.46875 L 42.4375,128.46875 L 42.4375,129.65625 z M 61.625,129.65625 L 71.21875,129.65625 L 71.21875,128.46875 L 61.625,128.46875 L 61.625,129.65625 z M 80.8125,129.65625 L 90.4375,129.65625 L 90.4375,128.46875 L 80.8125,128.46875 L 80.8125,129.65625 z M 100.03125,129.65625 L 109.625,129.65625 L 109.625,128.46875 L 100.03125,128.46875 L 100.03125,129.65625 z M 119.21875,129.65625 L 128.8125,129.65625 L 128.8125,128.46875 L 119.21875,128.46875 L 119.21875,129.65625 z M 138.4375,129.65625 L 148.03125,129.65625 L 148.03125,128.46875 L 138.4375,128.46875 L 138.4375,129.65625 z M 157.625,129.65625 L 167.21875,129.65625 L 167.21875,128.46875 L 157.625,128.46875 L 157.625,129.65625 z M 176.8125,129.65625 L 186.4375,129.65625 L 186.4375,128.46875 L 176.8125,128.46875 L 176.8125,129.65625 z M 196.03125,129.65625 L 205.625,129.65625 L 205.625,128.46875 L 196.03125,128.46875 L 196.03125,129.65625 z M 215.21875,129.65625 L 224.8125,129.65625 L 224.8125,128.46875 L 215.21875,128.46875 L 215.21875,129.65625 z M 234.4375,129.65625 L 244.03125,129.65625 L 244.03125,128.46875 L 234.4375,128.46875 L 234.4375,129.65625 z M 253.625,129.65625 L 263.21875,129.65625 L 263.21875,128.46875 L 253.625,128.46875 L 253.625,129.65625 z M 272.8125,129.65625 L 282.4375,129.65625 L 282.4375,128.46875 L 272.8125,128.46875 L 272.8125,129.65625 z M 292.03125,129.65625 L 301.625,129.65625 L 301.625,128.46875 L 292.03125,128.46875 L 292.03125,129.65625 z M 311.21875,129.65625 L 320.8125,129.65625 L 320.8125,128.46875 L 311.21875,128.46875 L 311.21875,129.65625 z M 330.4375,129.65625 L 340.03125,129.65625 L 340.03125,128.46875 L 330.4375,128.46875 L 330.4375,129.65625 z M 349.625,129.65625 L 359.21875,129.65625 L 359.21875,128.46875 L 349.625,128.46875 L 349.625,129.65625 z M 368.8125,129.65625 L 378.4375,129.65625 L 378.4375,128.46875 L 368.8125,128.46875 L 368.8125,129.65625 z M 388.03125,129.65625 L 397.625,129.65625 L 397.625,128.46875 L 388.03125,128.46875 L 388.03125,129.65625 z M 407.21875,129.65625 L 416.8125,129.65625 L 416.8125,128.46875 L 407.21875,128.46875 L 407.21875,129.65625 z M 426.4375,129.65625 L 436.03125,129.65625 L 436.03125,128.46875 L 426.4375,128.46875 L 426.4375,129.65625 z M 445.625,129.65625 L 455.21875,129.65625 L 455.21875,128.46875 L 445.625,128.46875 L 445.625,129.65625 z M 464.8125,129.65625 L 474.4375,129.65625 L 474.4375,128.46875 L 464.8125,128.46875 L 464.8125,129.65625 z M 484.03125,129.65625 L 493.625,129.65625 L 493.625,128.46875 L 484.03125,128.46875 L 484.03125,129.65625 z M 503.21875,129.65625 L 512.8125,129.65625 L 512.8125,128.46875 L 503.21875,128.46875 L 503.21875,129.65625 z M 522.4375,129.65625 L 532.03125,129.65625 L 532.03125,128.46875 L 522.4375,128.46875 L 522.4375,129.65625 z M 541.625,129.65625 L 551.21875,129.65625 L 551.21875,128.46875 L 541.625,128.46875 L 541.625,129.65625 z M 560.8125,129.65625 L 570.4375,129.65625 L 570.4375,128.46875 L 560.8125,128.46875 L 560.8125,129.65625 z M 580.03125,129.65625 L 589.625,129.65625 L 589.625,128.46875 L 580.03125,128.46875 L 580.03125,129.65625 z M 599.21875,129.65625 L 608.8125,129.65625 L 608.8125,128.46875 L 599.21875,128.46875 L 599.21875,129.65625 z M 618.4375,129.65625 L 628.03125,129.65625 L 628.03125,128.46875 L 618.4375,128.46875 L 618.4375,129.65625 z M 637.625,129.65625 L 647.21875,129.65625 L 647.21875,128.46875 L 637.625,128.46875 L 637.625,129.65625 z M 656.8125,129.65625 L 666.4375,129.65625 L 666.4375,128.46875 L 656.8125,128.46875 L 656.8125,129.65625 z M 676.03125,129.65625 L 685.625,129.65625 L 685.625,128.46875 L 676.03125,128.46875 L 676.03125,129.65625 z M 695.21875,129.65625 L 704.8125,129.65625 L 704.8125,128.46875 L 695.21875,128.46875 L 695.21875,129.65625 z M 714.4375,129.65625 L 724.03125,129.65625 L 724.03125,128.46875 L 714.4375,128.46875 L 714.4375,129.65625 z M 733.625,129.65625 L 743.21875,129.65625 L 743.21875,128.46875 L 733.625,128.46875 L 733.625,129.65625 z "
       style="fill:#1626ff;fill-opacity:0.74375;fill-rule:evenodd;stroke:none;stroke-width:1.20000005;stroke-linecap:butt;stroke-linejoin:miter;stroke-miterlimit:4;stroke-dasharray:9.6, 9.6;stroke-dashoffset:0;stroke-opacity:1"
       id="path1934" />
    <path
       d="M 27.430775,128.33542 C 26.610459,128.08933 25.981553,127.71108 25.544056,127.20065 C 25.106554,126.69024 24.887804,126.08868 24.887806,125.39597 C 24.887804,124.44806 25.29796,123.67332 26.118275,123.07175 C 26.938583,122.46108 28.009546,122.15574 29.331165,122.15573 C 30.48871,122.15574 31.46397,122.36538 32.256947,122.78464 C 33.05902,123.19481 33.460061,123.70066 33.460072,124.30222 C 33.460061,124.60301 33.364358,124.84454 33.172962,125.02682 C 32.990661,125.20001 32.749125,125.2866 32.448353,125.28659 C 32.156677,125.2866 31.910584,125.21368 31.710072,125.06784 C 31.509542,124.9129 31.304465,124.63947 31.094837,124.24753 C 30.848736,123.7827 30.58897,123.46369 30.31554,123.2905 C 30.042096,123.10822 29.668398,123.01707 29.194447,123.01706 C 28.601993,123.01707 28.146265,123.22671 27.827259,123.64597 C 27.508244,124.06525 27.348739,124.65769 27.348743,125.42331 C 27.348739,126.18894 27.508244,126.79506 27.827259,127.24167 C 28.155379,127.67918 28.592879,127.89793 29.139759,127.89792 C 29.367618,127.89793 29.691185,127.83868 30.110462,127.72018 C 30.53884,127.59259 30.85785,127.52879 31.067493,127.52878 C 31.340923,127.52879 31.559673,127.60626 31.723743,127.7612 C 31.887797,127.91616 31.969828,128.11668 31.969837,128.36276 C 31.969828,128.65444 31.892355,128.87774 31.737415,129.03268 C 31.582459,129.18764 31.359152,129.26511 31.067493,129.26511 C 30.848736,129.26511 30.534283,129.18308 30.124134,129.01901 C 29.723086,128.84584 29.404076,128.75925 29.167103,128.75925 C 28.583764,128.75925 28.123478,128.99167 27.786243,129.45651 C 27.458114,129.91225 27.294052,130.54115 27.294056,131.34323 C 27.294052,132.22735 27.540145,132.94284 28.032337,133.48972 C 28.533634,134.03659 29.194441,134.31003 30.014759,134.31003 C 30.753033,134.31003 31.391053,134.10039 31.928822,133.68112 C 32.475687,133.25274 32.954202,132.59193 33.364368,131.6987 L 34.129993,132.06784 C 33.665139,133.19805 33.027119,134.04115 32.215931,134.59714 C 31.413839,135.15313 30.415794,135.43112 29.22179,135.43112 C 27.881942,135.43112 26.797308,135.08477 25.967884,134.39206 C 25.138455,133.69935 24.723742,132.79245 24.723743,131.67136 C 24.723742,130.86016 24.956164,130.17201 25.421009,129.6069 C 25.88585,129.03269 26.555771,128.60886 27.430775,128.33542"
       style="font-size:28px;font-style:normal;font-variant:normal;font-weight:normal;font-stretch:normal;text-align:start;line-height:125%;writing-mode:lr-tb;text-anchor:start;fill:black;fill-opacity:1;stroke:none;stroke-width:1px;stroke-linecap:butt;stroke-linejoin:miter;stroke-opacity:1;font-family:Symbol"
       id="text3708" />
    <path
       d="M 737.84157,152.26345 L 737.84157,153.81403 L 736.0579,153.81403 C 735.38901,153.81405 734.92283,153.94917 734.65933,154.21941 C 734.40259,154.48968 734.27422,154.97614 734.27422,155.67878 L 734.27422,156.6821 L 737.34498,156.6821 L 737.34498,158.13133 L 734.27422,158.13133 L 734.27422,168.03275 L 732.39934,168.03275 L 732.39934,158.13133 L 730.61567,158.13133 L 730.61567,156.6821 L 732.39934,156.6821 L 732.39934,155.89161 C 732.39934,154.62818 732.69324,153.70932 733.28104,153.13502 C 733.86884,152.55399 734.80121,152.26347 736.07816,152.26345 L 737.84157,152.26345 M 743.8716,152.28372 C 742.96625,153.83769 742.29399,155.37476 741.85483,156.89492 C 741.41567,158.41511 741.19609,159.95555 741.19609,161.51626 C 741.19609,163.07698 741.41567,164.62418 741.85483,166.15786 C 742.30075,167.68479 742.973,169.22186 743.8716,170.76906 L 742.25008,170.76906 C 741.23662,169.18132 740.47654,167.62061 739.96981,166.08692 C 739.46984,164.55323 739.21986,163.02968 739.21986,161.51626 C 739.21986,160.0096 739.46984,158.49281 739.96981,156.96586 C 740.46978,155.43894 741.22987,153.87823 742.25008,152.28372 L 743.8716,152.28372 M 756.93498,156.6821 L 752.83051,162.2054 L 757.14781,168.03275 L 754.94862,168.03275 L 751.64477,163.57356 L 748.34092,168.03275 L 746.14173,168.03275 L 750.55024,162.09392 L 746.51671,156.6821 L 748.7159,156.6821 L 751.72584,160.72577 L 754.73579,156.6821 L 756.93498,156.6821 M 759.48888,152.28372 L 761.1104,152.28372 C 762.12384,153.87823 762.88055,155.43894 763.38053,156.96586 C 763.88725,158.49281 764.14061,160.0096 764.14061,161.51626 C 764.14061,163.02968 763.88725,164.55323 763.38053,166.08692 C 762.88055,167.62061 762.12384,169.18132 761.1104,170.76906 L 759.48888,170.76906 C 760.38747,169.22186 761.05634,167.68479 761.49551,166.15786 C 761.94142,164.62418 762.16438,163.07698 762.16439,161.51626 C 762.16438,159.95555 761.94142,158.41511 761.49551,156.89492 C 761.05634,155.37476 760.38747,153.83769 759.48888,152.28372"
       style="font-size:20.75547028px;font-style:normal;font-weight:normal;fill:black;fill-opacity:1;stroke:none;stroke-width:1px;stroke-linecap:butt;stroke-linejoin:miter;stroke-opacity:1;font-family:Bitstream Vera Sans"
       id="text3712" />
    <path
       d="M 279.03739,309.27905 L 279.03739,311.07167 L 278.26557,311.07167 C 276.19906,311.07167 274.8131,310.7646 274.10768,310.15047 C 273.41054,309.53632 273.06198,308.3122 273.06199,306.47808 L 273.06199,303.50283 C 273.06198,302.24966 272.8379,301.38239 272.38975,300.90104 C 271.94159,300.41969 271.12827,300.17902 269.9498,300.17901 L 269.19042,300.17901 L 269.19042,298.39884 L 269.9498,298.39884 C 271.13657,298.39885 271.94989,298.16232 272.38975,297.68926 C 272.8379,297.20792 273.06198,296.34895 273.06199,295.11236 L 273.06199,292.12466 C 273.06198,290.29056 273.41054,289.07058 274.10768,288.46473 C 274.8131,287.85061 276.19906,287.54354 278.26557,287.54352 L 279.03739,287.54352 L 279.03739,289.32369 L 278.19087,289.32369 C 277.02068,289.32371 276.25716,289.50629 275.9003,289.87144 C 275.54343,290.23662 275.365,291.00429 275.36501,292.17446 L 275.36501,295.26175 C 275.365,296.56473 275.17412,297.51083 274.79236,298.10007 C 274.41889,298.68932 273.77571,299.08768 272.86281,299.29515 C 273.78401,299.51923 274.43134,299.92589 274.80481,300.51513 C 275.17827,301.10437 275.365,302.04633 275.36501,303.34099 L 275.36501,306.42829 C 275.365,307.59847 275.54343,308.36614 275.9003,308.73131 C 276.25716,309.09647 277.02068,309.27905 278.19087,309.27905 L 279.03739,309.27905 M 296.22913,292.97118 L 291.18738,299.75575 L 296.49055,306.91379 L 293.78917,306.91379 L 289.73087,301.43633 L 285.67258,306.91379 L 282.9712,306.91379 L 288.38641,299.61882 L 283.4318,292.97118 L 286.13318,292.97118 L 289.83046,297.93823 L 293.52775,292.97118 L 296.22913,292.97118 M 315.2823,300.46354 C 315.84319,300.46354 316.20012,300.03012 316.27661,299.46923 C 316.3021,299.36725 316.3021,299.29077 316.3021,299.21428 C 316.3021,298.78086 316.09814,298.47492 315.61374,298.47492 L 309.36745,298.47492 C 309.69888,297.45512 310.36175,296.5118 311.20309,295.82344 C 312.06992,295.13507 313.29369,294.70166 314.67042,294.70166 C 315.74121,294.70166 316.86299,295.16057 317.65334,296.0019 C 317.90829,296.28235 318.18874,296.38433 318.46918,296.38433 C 318.80062,296.38433 319.13205,296.23136 319.4125,296.0019 C 319.64195,295.79794 319.82042,295.5175 319.82042,295.18606 C 319.82042,294.88012 319.66745,294.54868 319.25953,294.21725 C 318.29072,293.4269 316.78651,292.71304 314.64492,292.71304 C 310.38725,292.71304 307.35334,295.28805 306.71596,299.69869 C 306.63948,300.23408 306.61398,300.71849 306.61398,301.20289 C 306.61398,305.00165 308.90854,307.3727 312.93675,307.3727 C 315.23131,307.3727 317.04146,306.63334 318.3927,305.3076 C 318.64765,305.07814 318.74963,304.82319 318.74963,304.59374 C 318.74963,304.2623 318.54567,303.93087 318.21423,303.70141 C 317.98478,303.52295 317.72983,303.42096 317.47488,303.42096 C 317.16893,303.42096 316.88849,303.54844 316.60804,303.82889 C 315.7922,304.72121 314.56844,305.38408 313.2427,305.38408 C 311.43255,305.38408 310.43824,304.82319 309.74987,303.98186 C 309.18898,303.268 308.95953,302.06973 308.95953,301.1774 C 308.95953,300.89695 308.98502,300.6675 309.01052,300.46354 L 315.2823,300.46354 M 329.60425,288.32779 L 332.30563,288.32779 L 336.92412,295.23685 L 341.56751,288.32779 L 344.26889,288.32779 L 338.29348,297.25355 L 344.66725,306.91379 L 341.96587,306.91379 L 336.73739,299.00883 L 331.47156,306.91379 L 328.75773,306.91379 L 335.39292,296.99213 L 329.60425,288.32779 M 358.94597,287.43148 L 358.94597,312.92654 L 356.82968,312.92654 L 356.82968,287.43148 L 358.94597,287.43148 M 379.78519,287.54352 L 379.78519,289.44818 L 377.59421,289.44818 C 376.77259,289.4482 376.19994,289.61418 375.87628,289.94613 C 375.56091,290.27811 375.40322,290.87565 375.40323,291.73875 L 375.40323,292.97118 L 379.1752,292.97118 L 379.1752,294.75135 L 375.40323,294.75135 L 375.40323,306.91379 L 373.10021,306.91379 L 373.10021,294.75135 L 370.90923,294.75135 L 370.90923,292.97118 L 373.10021,292.97118 L 373.10021,292.00017 C 373.10021,290.44825 373.46122,289.31956 374.18325,288.61411 C 374.90527,287.9004 376.05056,287.54354 377.61911,287.54352 L 379.78519,287.54352 M 387.19221,287.56842 C 386.08011,289.47724 385.25435,291.3653 384.71491,293.2326 C 384.17545,295.09993 383.90573,296.99214 383.90574,298.90924 C 383.90573,300.82635 384.17545,302.72686 384.71491,304.61077 C 385.26264,306.48638 386.08841,308.37444 387.19221,310.27495 L 385.20041,310.27495 C 383.95553,308.32465 383.02187,306.40754 382.39944,304.52363 C 381.7853,302.63972 381.47823,300.76826 381.47823,298.90924 C 381.47823,297.05853 381.7853,295.19537 382.39944,293.31974 C 383.01357,291.44415 383.94723,289.52704 385.20041,287.56842 L 387.19221,287.56842 M 403.23866,292.97118 L 398.19691,299.75575 L 403.50008,306.91379 L 400.7987,306.91379 L 396.74041,301.43633 L 392.68211,306.91379 L 389.98073,306.91379 L 395.39594,299.61882 L 390.44133,292.97118 L 393.14272,292.97118 L 396.84,297.93823 L 400.53728,292.97118 L 403.23866,292.97118 M 406.37575,287.56842 L 408.36755,287.56842 C 409.61242,289.52704 410.54193,291.44415 411.15607,293.31974 C 411.7785,295.19537 412.08972,297.05853 412.08973,298.90924 C 412.08972,300.76826 411.7785,302.63972 411.15607,304.52363 C 410.54193,306.40754 409.61242,308.32465 408.36755,310.27495 L 406.37575,310.27495 C 407.47954,308.37444 408.30115,306.48638 408.8406,304.61077 C 409.38834,302.72686 409.66222,300.82635 409.66222,298.90924 C 409.66222,296.99214 409.38834,295.09993 408.8406,293.2326 C 408.30115,291.3653 407.47954,289.47724 406.37575,287.56842 M 425.11112,294.26585 L 425.11112,292.07487 L 441.07043,296.64356 L 441.07043,298.75985 L 425.11112,303.34099 L 425.11112,301.12511 L 437.07438,297.71416 L 425.11112,294.26585 M 441.07043,304.7975 L 441.07043,306.91379 L 425.11112,306.91379 L 425.11112,304.7975 L 441.07043,304.7975 M 460.30376,300.92593 L 458.94684,300.92593 C 458.55678,300.92594 458.16671,300.94254 457.77666,300.97573 C 457.38659,301.00893 457.03803,301.10022 456.73096,301.2496 C 456.42389,301.39069 456.17907,301.61477 455.99649,301.92184 C 455.77241,302.22061 455.66037,302.61067 455.66037,303.09202 C 455.66037,303.51528 455.76411,303.87214 455.97159,304.16261 C 456.15417,304.43649 456.39899,304.66471 456.70607,304.84729 C 457.37,305.18756 458.07542,305.3494 458.82236,305.3328 C 459.77675,305.3328 460.59422,305.13777 461.27476,304.7477 C 461.93039,304.34105 462.32045,303.66052 462.44494,302.70611 L 464.58613,302.70611 C 464.50313,304.19996 463.92633,305.31205 462.85575,306.04237 C 461.78515,306.7893 460.55272,307.16276 459.15847,307.16276 C 458.46134,307.16276 457.7808,307.10467 457.11688,306.98848 C 456.45294,306.87229 455.8305,306.66896 455.24956,306.37849 C 454.69351,306.07142 454.24536,305.65646 453.9051,305.13362 C 453.54823,304.58587 453.3698,303.89704 453.3698,303.06712 C 453.3864,302.21231 453.68102,301.52348 454.25366,301.00063 C 454.8014,300.45289 455.44044,300.10432 456.17077,299.95493 L 456.17077,299.90514 C 455.47364,299.64787 454.90514,299.28271 454.46529,298.80965 C 454.00883,298.3449 453.78061,297.73906 453.78061,296.99213 C 453.78061,296.3531 453.93829,295.80121 454.25366,295.33644 C 454.54413,294.88 454.93834,294.51484 455.43629,294.24095 C 456.45709,293.68492 457.53598,293.4069 458.67297,293.40688 C 460.11702,293.4069 461.35774,293.70152 462.39515,294.29075 C 463.43253,294.93809 463.99273,296.01699 464.07573,297.52742 L 461.93455,297.52742 C 461.91794,296.64772 461.57767,296.03773 460.91375,295.69746 C 460.24981,295.3904 459.52778,295.23686 458.74766,295.23685 C 458.11692,295.23686 457.53183,295.3655 456.99239,295.62276 C 456.39484,295.91325 456.08777,296.43194 456.07118,297.17886 C 456.08777,297.94239 456.39484,298.46109 456.99239,298.73495 C 457.56503,298.98394 458.19991,299.10012 458.89705,299.08352 L 460.30376,299.08352 L 460.30376,300.92593 M 469.26687,309.27905 L 470.13828,309.27905 C 471.30016,309.27905 472.05538,309.10062 472.40396,308.74376 C 472.76081,308.38689 472.93925,307.61507 472.93925,306.42829 L 472.93925,303.34099 C 472.93925,302.04633 473.12598,301.10437 473.49945,300.51513 C 473.8729,299.92589 474.52024,299.51923 475.44145,299.29515 C 474.52024,299.08768 473.8729,298.68932 473.49945,298.10007 C 473.12598,297.51083 472.93925,296.56473 472.93925,295.26175 L 472.93925,292.17446 C 472.93925,290.99599 472.76081,290.22832 472.40396,289.87144 C 472.05538,289.50629 471.30016,289.32371 470.13828,289.32369 L 469.26687,289.32369 L 469.26687,287.54352 L 470.05114,287.54352 C 472.11763,287.54354 473.49529,287.85061 474.18413,288.46473 C 474.88125,289.07058 475.22982,290.29056 475.22982,292.12466 L 475.22982,295.11236 C 475.22982,296.34895 475.45389,297.20792 475.90206,297.68926 C 476.3502,298.16232 477.16352,298.39885 478.34201,298.39884 L 479.11384,298.39884 L 479.11384,300.17901 L 478.34201,300.17901 C 477.16352,300.17902 476.3502,300.41969 475.90206,300.90104 C 475.45389,301.38239 475.22982,302.24966 475.22982,303.50283 L 475.22982,306.47808 C 475.22982,308.3122 474.88125,309.53632 474.18413,310.15047 C 473.49529,310.7646 472.11763,311.07167 470.05114,311.07167 L 469.26687,311.07167 L 469.26687,309.27905"
       style="font-size:25.49505806px;font-style:normal;font-weight:normal;fill:#f6001b;fill-opacity:1;stroke:none;stroke-width:1px;stroke-linecap:butt;stroke-linejoin:miter;stroke-opacity:1;font-family:Bitstream Vera Sans"
       id="text5683" />
  </g>
</svg>
